<svg xmlns="http://www.w3.org/2000/svg" xmlns:xlink="http://www.w3.org/1999/xlink" id="mermaid-1638268098236" width="205.578" height="164" viewBox="0 0 205.578 164"><style>#mermaid-1638268098236{fill:#ccc}#mermaid-1638268098236,#mermaid-1638268098236 svg{font-family:&quot;trebuchet ms&quot;,verdana,arial,sans-serif;font-size:16px}#mermaid-1638268098236 .label{font-family:&quot;trebuchet ms&quot;,verdana,arial,sans-serif;color:#ccc}#mermaid-1638268098236 .label text{fill:#ccc;color:#ccc}#mermaid-1638268098236 .node path,#mermaid-1638268098236 .node rect{fill:#1f2020;stroke:#81b1db;stroke-width:1px}#mermaid-1638268098236 .node .label{text-align:center}#mermaid-1638268098236 .arrowheadPath{fill:#d3d3d3}#mermaid-1638268098236 .edgePath .path{stroke:#d3d3d3;stroke-width:1.5px}#mermaid-1638268098236 .edgeLabel{background-color:#585858;text-align:center}#mermaid-1638268098236 .edgeLabel rect{opacity:.5;background-color:#585858;fill:#585858}#mermaid-1638268098236:root{--mermaid-font-family:&quot;trebuchet ms&quot;,verdana,arial,sans-serif}</style><g><g class="output"><g class="edgePaths"><g id="L-A-B" class="edgePath LS-A LE-B" style="opacity:1"><path marker-end="url(#arrowhead14)" d="M38,33.75L42.166666666666664,32.708333333333336C46.333333333333336,31.666666666666668,54.666666666666664,29.583333333333332,63.04296875,28.541666666666668C71.41927083333333,27.5,79.83854166666667,27.5,84.04817708333333,27.5L88.2578125,27.5" class="path" style="fill:none"/><defs><marker id="arrowhead14" markerHeight="6" markerUnits="strokeWidth" markerWidth="8" orient="auto" refX="9" refY="5" viewBox="0 0 10 10"><path d="M 0 0 L 10 5 L 0 10 z" class="arrowheadPath" style="stroke-width:1;stroke-dasharray:1,0"/></marker></defs></g><g id="L-A-C" class="edgePath LS-A LE-C" style="opacity:1"><path marker-end="url(#arrowhead15)" d="M38,54.1875L42.166666666666664,58.822916666666664C46.333333333333336,63.458333333333336,54.666666666666664,72.72916666666667,63,82.02457417043C71.33333333333333,91.31998167419334,79.66666666666667,100.63996334838669,83.83333333333333,105.29995418548334L88,109.95994502258002" class="path" style="fill:none"/><defs><marker id="arrowhead15" markerHeight="6" markerUnits="strokeWidth" markerWidth="8" orient="auto" refX="9" refY="5" viewBox="0 0 10 10"><path d="M 0 0 L 10 5 L 0 10 z" class="arrowheadPath" style="stroke-width:1;stroke-dasharray:1,0"/></marker></defs></g><g id="L-C-D" class="edgePath LS-C LE-D" style="opacity:1"><path marker-end="url(#arrowhead16)" d="M117.578125,126.5L121.74479166666667,126.5C125.91145833333333,126.5,134.24479166666666,126.5,142.578125,126.5C150.91145833333334,126.5,159.24479166666666,126.5,163.41145833333334,126.5L167.578125,126.5" class="path" style="fill:none"/><defs><marker id="arrowhead16" markerHeight="6" markerUnits="strokeWidth" markerWidth="8" orient="auto" refX="9" refY="5" viewBox="0 0 10 10"><path d="M 0 0 L 10 5 L 0 10 z" class="arrowheadPath" style="stroke-width:1;stroke-dasharray:1,0"/></marker></defs></g><g id="L-E-C" class="edgePath LS-E LE-C" style="opacity:1"><path marker-end="url(#arrowhead17)" d="M37.5,136.5L41.75,136.5C46,136.5,54.5,136.5,62.916666666666664,135.45281104784343C71.33333333333333,134.40562209568688,79.66666666666667,132.3112441913738,83.83333333333333,131.2640552392172L88,130.21686628706067" class="path" style="fill:none"/><defs><marker id="arrowhead17" markerHeight="6" markerUnits="strokeWidth" markerWidth="8" orient="auto" refX="9" refY="5" viewBox="0 0 10 10"><path d="M 0 0 L 10 5 L 0 10 z" class="arrowheadPath" style="stroke-width:1;stroke-dasharray:1,0"/></marker></defs></g></g><g class="edgeLabels"><g class="edgeLabel" style="opacity:1"><g class="label" transform="translate(0,0)"><rect width="0" height="0" rx="0" ry="0"/></g></g><g class="edgeLabel" style="opacity:1"><g class="label" transform="translate(0,0)"><rect width="0" height="0" rx="0" ry="0"/></g></g><g class="edgeLabel" style="opacity:1"><g class="label" transform="translate(0,0)"><rect width="0" height="0" rx="0" ry="0"/></g></g><g class="edgeLabel" style="opacity:1"><g class="label" transform="translate(0,0)"><rect width="0" height="0" rx="0" ry="0"/></g></g></g><g class="nodes"><g id="flowchart-A-8" class="node default" transform="translate(23,37.5)" style="opacity:1"><rect width="30" height="39" x="-15" y="-19.5" class="label-container" rx="0" ry="0"/><g class="label"><g><text transform="translate(0,0) translate(-5,-9.5)"><tspan x="1" dy="1em" xml:space="preserve">A</tspan></text></g></g></g><g id="flowchart-B-9" class="node default" transform="translate(102.7890625,27.5)" style="opacity:1"><rect width="29.063" height="39" x="-14.531" y="-19.5" class="label-container" rx="0" ry="0"/><g class="label"><g><text transform="translate(0,0) translate(-4.53125,-9.5)"><tspan x="1" dy="1em" xml:space="preserve">B</tspan></text></g></g></g><g id="flowchart-C-11" class="node default" transform="translate(102.7890625,126.5)" style="opacity:1"><rect width="29.578" height="39" x="-14.789" y="-19.5" class="label-container" rx="0" ry="0"/><g class="label"><g><text transform="translate(0,0) translate(-4.7890625,-9.5)"><tspan x="1" dy="1em" xml:space="preserve">C</tspan></text></g></g></g><g id="flowchart-D-13" class="node default" transform="translate(182.578125,126.5)" style="opacity:1"><rect width="30" height="39" x="-15" y="-19.5" class="label-container" rx="0" ry="0"/><g class="label"><g><text transform="translate(0,0) translate(-5,-9.5)"><tspan x="1" dy="1em" xml:space="preserve">D</tspan></text></g></g></g><g id="flowchart-E-14" class="node default" transform="translate(23,136.5)" style="opacity:1"><rect width="29" height="39" x="-14.5" y="-19.5" class="label-container" rx="0" ry="0"/><g class="label"><g><text transform="translate(0,0) translate(-4.5,-9.5)"><tspan x="1" dy="1em" xml:space="preserve">E</tspan></text></g></g></g></g></g></g></svg>