<svg xmlns="http://www.w3.org/2000/svg" xmlns:xlink="http://www.w3.org/1999/xlink" id="mermaid-1638268104447" width="803.672" height="510" viewBox="0 0 803.672 510"><style>#mermaid-1638268104447{fill:#ccc}#mermaid-1638268104447,#mermaid-1638268104447 svg{font-family:&quot;trebuchet ms&quot;,verdana,arial,sans-serif;font-size:16px}#mermaid-1638268104447 .label{font-family:&quot;trebuchet ms&quot;,verdana,arial,sans-serif;color:#ccc}#mermaid-1638268104447 .label text{fill:#ccc;color:#ccc}#mermaid-1638268104447 .node path,#mermaid-1638268104447 .node rect{fill:#1f2020;stroke:#81b1db;stroke-width:1px}#mermaid-1638268104447 .node .label{text-align:center}#mermaid-1638268104447 .arrowheadPath{fill:#d3d3d3}#mermaid-1638268104447 .edgePath .path{stroke:#d3d3d3;stroke-width:1.5px}#mermaid-1638268104447 .edgeLabel{background-color:#585858;text-align:center}#mermaid-1638268104447 .edgeLabel rect{opacity:.5;background-color:#585858;fill:#585858}#mermaid-1638268104447:root{--mermaid-font-family:&quot;trebuchet ms&quot;,verdana,arial,sans-serif}</style><g><g class="output"><g class="edgePaths"><g id="L-main1.html-a1.js" class="edgePath LS-main1.html LE-a1.js" style="opacity:1"><path marker-end="url(#arrowhead44)" d="M69.68249128919861,196L80.6729094076655,175.33333333333334C91.66332752613239,154.66666666666666,113.6441637630662,113.33333333333333,132.76869646486645,92.66666666666667C151.89322916666666,72,168.16145833333334,72,176.29557291666666,72L184.4296875,72" class="path" style="fill:none"/><defs><marker id="arrowhead44" markerHeight="6" markerUnits="strokeWidth" markerWidth="8" orient="auto" refX="9" refY="5" viewBox="0 0 10 10"><path d="M 0 0 L 10 5 L 0 10 z" class="arrowheadPath" style="stroke-width:1;stroke-dasharray:1,0"/></marker></defs></g><g id="L-main1.html-a.png" class="edgePath LS-main1.html LE-a.png" style="opacity:1"><path marker-end="url(#arrowhead45)" d="M110.625,215.5L114.79166666666667,215.5C118.95833333333333,215.5,127.29166666666667,215.5,139.1796875,215.5C151.06770833333334,215.5,166.51041666666666,215.5,174.23177083333334,215.5L181.953125,215.5" class="path" style="fill:none"/><defs><marker id="arrowhead45" markerHeight="6" markerUnits="strokeWidth" markerWidth="8" orient="auto" refX="9" refY="5" viewBox="0 0 10 10"><path d="M 0 0 L 10 5 L 0 10 z" class="arrowheadPath" style="stroke-width:1;stroke-dasharray:1,0"/></marker></defs></g><g id="L-main1.html-a.css" class="edgePath LS-main1.html LE-a.css" style="opacity:1"><path marker-end="url(#arrowhead46)" d="M76.03265449438203,235L85.9647120786517,246.58333333333334C95.89676966292136,258.1666666666667,115.76088483146067,281.3333333333333,133.81533824906367,292.9166666666667C151.86979166666666,304.5,168.11458333333334,304.5,176.23697916666666,304.5L184.359375,304.5" class="path" style="fill:none"/><defs><marker id="arrowhead46" markerHeight="6" markerUnits="strokeWidth" markerWidth="8" orient="auto" refX="9" refY="5" viewBox="0 0 10 10"><path d="M 0 0 L 10 5 L 0 10 z" class="arrowheadPath" style="stroke-width:1;stroke-dasharray:1,0"/></marker></defs></g><g id="L-a1.js-a2.js" class="edgePath LS-a1.js LE-a2.js" style="opacity:1"><path marker-end="url(#arrowhead47)" d="M239.4453125,55.95940827190827L247.57942708333334,51.21617355992356C255.71354166666666,46.47293884793885,271.9817708333333,36.986469423969424,284.72265625,32.24323471198471C297.4635416666667,27.5,306.6770833333333,27.5,311.2838541666667,27.5L315.890625,27.5" class="path" style="fill:none"/><defs><marker id="arrowhead47" markerHeight="6" markerUnits="strokeWidth" markerWidth="8" orient="auto" refX="9" refY="5" viewBox="0 0 10 10"><path d="M 0 0 L 10 5 L 0 10 z" class="arrowheadPath" style="stroke-width:1;stroke-dasharray:1,0"/></marker></defs></g><g id="L-a1.js-a3.js" class="edgePath LS-a1.js LE-a3.js" style="opacity:1"><path marker-end="url(#arrowhead48)" d="M239.4453125,88.04059172809173L247.57942708333334,92.78382644007644C255.71354166666666,97.52706115206115,271.9817708333333,107.01353057603058,284.72265625,111.75676528801529C297.4635416666667,116.5,306.6770833333333,116.5,311.2838541666667,116.5L315.890625,116.5" class="path" style="fill:none"/><defs><marker id="arrowhead48" markerHeight="6" markerUnits="strokeWidth" markerWidth="8" orient="auto" refX="9" refY="5" viewBox="0 0 10 10"><path d="M 0 0 L 10 5 L 0 10 z" class="arrowheadPath" style="stroke-width:1;stroke-dasharray:1,0"/></marker></defs></g><g id="L-a3.js-b1.js" class="edgePath LS-a3.js LE-b1.js" style="opacity:1"><path marker-end="url(#arrowhead49)" d="M370.90625,116.5L375.5130208333333,116.5C380.1197916666667,116.5,389.3333333333333,116.5,398.1067708333333,116.5C406.8802083333333,116.5,415.2135416666667,116.5,419.3802083333333,116.5L423.546875,116.5" class="path" style="fill:none"/><defs><marker id="arrowhead49" markerHeight="6" markerUnits="strokeWidth" markerWidth="8" orient="auto" refX="9" refY="5" viewBox="0 0 10 10"><path d="M 0 0 L 10 5 L 0 10 z" class="arrowheadPath" style="stroke-width:1;stroke-dasharray:1,0"/></marker></defs></g><g id="L-b1.js-b2.js" class="edgePath LS-b1.js LE-b2.js" style="opacity:1"><path marker-end="url(#arrowhead50)" d="M474.4345154494382,97L479.3751170411985,92.83333333333333C484.3157186329588,88.66666666666667,494.19692181647935,80.33333333333333,503.30419007490633,76.16666666666667C512.4114583333334,72,520.7447916666666,72,524.9114583333334,72L529.078125,72" class="path" style="fill:none"/><defs><marker id="arrowhead50" markerHeight="6" markerUnits="strokeWidth" markerWidth="8" orient="auto" refX="9" refY="5" viewBox="0 0 10 10"><path d="M 0 0 L 10 5 L 0 10 z" class="arrowheadPath" style="stroke-width:1;stroke-dasharray:1,0"/></marker></defs></g><g id="L-b1.js-b3.js" class="edgePath LS-b1.js LE-b3.js" style="opacity:1"><path marker-end="url(#arrowhead51)" d="M474.4345154494382,136L479.3751170411985,140.16666666666666C484.3157186329588,144.33333333333334,494.19692181647935,152.66666666666666,503.30419007490633,156.83333333333334C512.4114583333334,161,520.7447916666666,161,524.9114583333334,161L529.078125,161" class="path" style="fill:none"/><defs><marker id="arrowhead51" markerHeight="6" markerUnits="strokeWidth" markerWidth="8" orient="auto" refX="9" refY="5" viewBox="0 0 10 10"><path d="M 0 0 L 10 5 L 0 10 z" class="arrowheadPath" style="stroke-width:1;stroke-dasharray:1,0"/></marker></defs></g><g id="L-a3.js-c1.js" class="edgePath LS-a3.js LE-c1.js" style="opacity:1"><path marker-end="url(#arrowhead52)" d="M351.453827247191,136L359.3026685393258,155C367.1515098314606,174,382.84919241573033,212,395.6386352996255,235.16666666666666C408.42807818352065,258.3333333333333,418.3092813670412,266.6666666666667,423.2498829588015,270.8333333333333L428.1904845505618,275" class="path" style="fill:none"/><defs><marker id="arrowhead52" markerHeight="6" markerUnits="strokeWidth" markerWidth="8" orient="auto" refX="9" refY="5" viewBox="0 0 10 10"><path d="M 0 0 L 10 5 L 0 10 z" class="arrowheadPath" style="stroke-width:1;stroke-dasharray:1,0"/></marker></defs></g><g id="L-c1.js-c2.js" class="edgePath LS-c1.js LE-c2.js" style="opacity:1"><path marker-end="url(#arrowhead53)" d="M474.4345154494382,275L479.3751170411985,270.8333333333333C484.3157186329588,266.6666666666667,494.19692181647935,258.3333333333333,503.3875234082397,254.16666666666666C512.578125,250,521.078125,250,525.328125,250L529.578125,250" class="path" style="fill:none"/><defs><marker id="arrowhead53" markerHeight="6" markerUnits="strokeWidth" markerWidth="8" orient="auto" refX="9" refY="5" viewBox="0 0 10 10"><path d="M 0 0 L 10 5 L 0 10 z" class="arrowheadPath" style="stroke-width:1;stroke-dasharray:1,0"/></marker></defs></g><g id="L-c1.js-c3.js" class="edgePath LS-c1.js LE-c3.js" style="opacity:1"><path marker-end="url(#arrowhead54)" d="M474.4345154494382,314L479.3751170411985,318.1666666666667C484.3157186329588,322.3333333333333,494.19692181647935,330.6666666666667,503.3875234082397,334.8333333333333C512.578125,339,521.078125,339,525.328125,339L529.578125,339" class="path" style="fill:none"/><defs><marker id="arrowhead54" markerHeight="6" markerUnits="strokeWidth" markerWidth="8" orient="auto" refX="9" refY="5" viewBox="0 0 10 10"><path d="M 0 0 L 10 5 L 0 10 z" class="arrowheadPath" style="stroke-width:1;stroke-dasharray:1,0"/></marker></defs></g><g id="L-c2.js-d1.js" class="edgePath LS-c2.js LE-d1.js" style="opacity:1"><path marker-end="url(#arrowhead55)" d="M584.109375,250L588.359375,250C592.609375,250,601.109375,250,609.5260416666666,250C617.9427083333334,250,626.2760416666666,250,630.4427083333334,250L634.609375,250" class="path" style="fill:none"/><defs><marker id="arrowhead55" markerHeight="6" markerUnits="strokeWidth" markerWidth="8" orient="auto" refX="9" refY="5" viewBox="0 0 10 10"><path d="M 0 0 L 10 5 L 0 10 z" class="arrowheadPath" style="stroke-width:1;stroke-dasharray:1,0"/></marker></defs></g><g id="L-d1.js-d2.js" class="edgePath LS-d1.js LE-d2.js" style="opacity:1"><path marker-end="url(#arrowhead56)" d="M685.4970154494382,230.5L690.4376170411985,226.33333333333334C695.3782186329587,222.16666666666666,705.2594218164794,213.83333333333334,714.3666900749064,209.66666666666666C723.4739583333334,205.5,731.8072916666666,205.5,735.9739583333334,205.5L740.140625,205.5" class="path" style="fill:none"/><defs><marker id="arrowhead56" markerHeight="6" markerUnits="strokeWidth" markerWidth="8" orient="auto" refX="9" refY="5" viewBox="0 0 10 10"><path d="M 0 0 L 10 5 L 0 10 z" class="arrowheadPath" style="stroke-width:1;stroke-dasharray:1,0"/></marker></defs></g><g id="L-d1.js-d3.js" class="edgePath LS-d1.js LE-d3.js" style="opacity:1"><path marker-end="url(#arrowhead57)" d="M685.4970154494382,269.5L690.4376170411985,273.6666666666667C695.3782186329587,277.8333333333333,705.2594218164794,286.1666666666667,714.3666900749064,290.3333333333333C723.4739583333334,294.5,731.8072916666666,294.5,735.9739583333334,294.5L740.140625,294.5" class="path" style="fill:none"/><defs><marker id="arrowhead57" markerHeight="6" markerUnits="strokeWidth" markerWidth="8" orient="auto" refX="9" refY="5" viewBox="0 0 10 10"><path d="M 0 0 L 10 5 L 0 10 z" class="arrowheadPath" style="stroke-width:1;stroke-dasharray:1,0"/></marker></defs></g><g id="L-main2.html-e1.js" class="edgePath LS-main2.html LE-e1.js" style="opacity:1"><path marker-end="url(#arrowhead58)" d="M228.65765449438203,374L238.5897120786517,362.4166666666667C248.52176966292134,350.8333333333333,268.3858848314607,327.6666666666667,282.8973694990637,316.0833333333333C297.4088541666667,304.5,306.5677083333333,304.5,311.1471354166667,304.5L315.7265625,304.5" class="path" style="fill:none"/><defs><marker id="arrowhead58" markerHeight="6" markerUnits="strokeWidth" markerWidth="8" orient="auto" refX="9" refY="5" viewBox="0 0 10 10"><path d="M 0 0 L 10 5 L 0 10 z" class="arrowheadPath" style="stroke-width:1;stroke-dasharray:1,0"/></marker></defs></g><g id="L-main2.html-e.css" class="edgePath LS-main2.html LE-e.css" style="opacity:1"><path marker-end="url(#arrowhead59)" d="M263.25,393.5L267.4166666666667,393.5C271.5833333333333,393.5,279.9166666666667,393.5,288.6510416666667,393.5C297.3854166666667,393.5,306.5208333333333,393.5,311.0885416666667,393.5L315.65625,393.5" class="path" style="fill:none"/><defs><marker id="arrowhead59" markerHeight="6" markerUnits="strokeWidth" markerWidth="8" orient="auto" refX="9" refY="5" viewBox="0 0 10 10"><path d="M 0 0 L 10 5 L 0 10 z" class="arrowheadPath" style="stroke-width:1;stroke-dasharray:1,0"/></marker></defs></g><g id="L-main2.html-e.png" class="edgePath LS-main2.html LE-e.png" style="opacity:1"><path marker-end="url(#arrowhead60)" d="M228.65765449438203,413L238.5897120786517,424.5833333333333C248.52176966292134,436.1666666666667,268.3858848314607,459.3333333333333,282.484609082397,470.9166666666667C296.5833333333333,482.5,304.9166666666667,482.5,309.0833333333333,482.5L313.25,482.5" class="path" style="fill:none"/><defs><marker id="arrowhead60" markerHeight="6" markerUnits="strokeWidth" markerWidth="8" orient="auto" refX="9" refY="5" viewBox="0 0 10 10"><path d="M 0 0 L 10 5 L 0 10 z" class="arrowheadPath" style="stroke-width:1;stroke-dasharray:1,0"/></marker></defs></g><g id="L-e1.js-c1.js" class="edgePath LS-e1.js LE-c1.js" style="opacity:1"><path marker-end="url(#arrowhead61)" d="M371.0703125,304.5L375.6497395833333,304.5C380.2291666666667,304.5,389.3880208333333,304.5,398.2174479166667,303.6945513769618C407.046875,302.8891027539236,415.546875,301.2782055078472,419.796875,300.47275688480903L424.046875,299.6673082617708" class="path" style="fill:none"/><defs><marker id="arrowhead61" markerHeight="6" markerUnits="strokeWidth" markerWidth="8" orient="auto" refX="9" refY="5" viewBox="0 0 10 10"><path d="M 0 0 L 10 5 L 0 10 z" class="arrowheadPath" style="stroke-width:1;stroke-dasharray:1,0"/></marker></defs></g></g><g class="edgeLabels"><g class="edgeLabel" style="opacity:1"><g class="label" transform="translate(0,0)"><rect width="0" height="0" rx="0" ry="0"/></g></g><g class="edgeLabel" style="opacity:1"><g class="label" transform="translate(0,0)"><rect width="0" height="0" rx="0" ry="0"/></g></g><g class="edgeLabel" style="opacity:1"><g class="label" transform="translate(0,0)"><rect width="0" height="0" rx="0" ry="0"/></g></g><g class="edgeLabel" style="opacity:1"><g class="label" transform="translate(0,0)"><rect width="0" height="0" rx="0" ry="0"/></g></g><g class="edgeLabel" style="opacity:1"><g class="label" transform="translate(0,0)"><rect width="0" height="0" rx="0" ry="0"/></g></g><g class="edgeLabel" style="opacity:1"><g class="label" transform="translate(0,0)"><rect width="0" height="0" rx="0" ry="0"/></g></g><g class="edgeLabel" style="opacity:1"><g class="label" transform="translate(0,0)"><rect width="0" height="0" rx="0" ry="0"/></g></g><g class="edgeLabel" style="opacity:1"><g class="label" transform="translate(0,0)"><rect width="0" height="0" rx="0" ry="0"/></g></g><g class="edgeLabel" style="opacity:1"><g class="label" transform="translate(0,0)"><rect width="0" height="0" rx="0" ry="0"/></g></g><g class="edgeLabel" style="opacity:1"><g class="label" transform="translate(0,0)"><rect width="0" height="0" rx="0" ry="0"/></g></g><g class="edgeLabel" style="opacity:1"><g class="label" transform="translate(0,0)"><rect width="0" height="0" rx="0" ry="0"/></g></g><g class="edgeLabel" style="opacity:1"><g class="label" transform="translate(0,0)"><rect width="0" height="0" rx="0" ry="0"/></g></g><g class="edgeLabel" style="opacity:1"><g class="label" transform="translate(0,0)"><rect width="0" height="0" rx="0" ry="0"/></g></g><g class="edgeLabel" style="opacity:1"><g class="label" transform="translate(0,0)"><rect width="0" height="0" rx="0" ry="0"/></g></g><g class="edgeLabel" style="opacity:1"><g class="label" transform="translate(0,0)"><rect width="0" height="0" rx="0" ry="0"/></g></g><g class="edgeLabel" style="opacity:1"><g class="label" transform="translate(0,0)"><rect width="0" height="0" rx="0" ry="0"/></g></g><g class="edgeLabel" style="opacity:1"><g class="label" transform="translate(0,0)"><rect width="0" height="0" rx="0" ry="0"/></g></g><g class="edgeLabel" style="opacity:1"><g class="label" transform="translate(0,0)"><rect width="0" height="0" rx="0" ry="0"/></g></g></g><g class="nodes"><g id="flowchart-main1.html-36" class="node default" transform="translate(59.3125,215.5)" style="opacity:1"><rect width="102.625" height="39" x="-51.313" y="-19.5" class="label-container" rx="0" ry="0"/><g class="label"><g><text transform="translate(0,0) translate(-41.3125,-9.5)"><tspan x="1" dy="1em" xml:space="preserve">main1.html</tspan></text></g></g></g><g id="flowchart-a1.js-37" class="node default" transform="translate(211.9375,72)" style="opacity:1"><rect width="55.016" height="39" x="-27.508" y="-19.5" class="label-container" rx="0" ry="0"/><g class="label"><g><text transform="translate(0,0) translate(-17.5078125,-9.5)"><tspan x="1" dy="1em" xml:space="preserve">a1.js</tspan></text></g></g></g><g id="flowchart-a.png-39" class="node default" transform="translate(211.9375,215.5)" style="opacity:1"><rect width="59.969" height="39" x="-29.984" y="-19.5" class="label-container" rx="0" ry="0"/><g class="label"><g><text transform="translate(0,0) translate(-19.984375,-9.5)"><tspan x="1" dy="1em" xml:space="preserve">a.png</tspan></text></g></g></g><g id="flowchart-a.css-41" class="node default" transform="translate(211.9375,304.5)" style="opacity:1"><rect width="55.156" height="39" x="-27.578" y="-19.5" class="label-container" rx="0" ry="0"/><g class="label"><g><text transform="translate(0,0) translate(-17.578125,-9.5)"><tspan x="1" dy="1em" xml:space="preserve">a.css</tspan></text></g></g></g><g id="flowchart-a2.js-43" class="node default" transform="translate(343.3984375,27.5)" style="opacity:1"><rect width="55.016" height="39" x="-27.508" y="-19.5" class="label-container" rx="0" ry="0"/><g class="label"><g><text transform="translate(0,0) translate(-17.5078125,-9.5)"><tspan x="1" dy="1em" xml:space="preserve">a2.js</tspan></text></g></g></g><g id="flowchart-a3.js-45" class="node default" transform="translate(343.3984375,116.5)" style="opacity:1"><rect width="55.016" height="39" x="-27.508" y="-19.5" class="label-container" rx="0" ry="0"/><g class="label"><g><text transform="translate(0,0) translate(-17.5078125,-9.5)"><tspan x="1" dy="1em" xml:space="preserve">a3.js</tspan></text></g></g></g><g id="flowchart-b1.js-47" class="node default" transform="translate(451.3125,116.5)" style="opacity:1"><rect width="55.531" height="39" x="-27.766" y="-19.5" class="label-container" rx="0" ry="0"/><g class="label"><g><text transform="translate(0,0) translate(-17.765625,-9.5)"><tspan x="1" dy="1em" xml:space="preserve">b1.js</tspan></text></g></g></g><g id="flowchart-b2.js-49" class="node default" transform="translate(556.84375,72)" style="opacity:1"><rect width="55.531" height="39" x="-27.766" y="-19.5" class="label-container" rx="0" ry="0"/><g class="label"><g><text transform="translate(0,0) translate(-17.765625,-9.5)"><tspan x="1" dy="1em" xml:space="preserve">b2.js</tspan></text></g></g></g><g id="flowchart-b3.js-51" class="node default" transform="translate(556.84375,161)" style="opacity:1"><rect width="55.531" height="39" x="-27.766" y="-19.5" class="label-container" rx="0" ry="0"/><g class="label"><g><text transform="translate(0,0) translate(-17.765625,-9.5)"><tspan x="1" dy="1em" xml:space="preserve">b3.js</tspan></text></g></g></g><g id="flowchart-c1.js-53" class="node default" transform="translate(451.3125,294.5)" style="opacity:1"><rect width="54.531" height="39" x="-27.266" y="-19.5" class="label-container" rx="0" ry="0"/><g class="label"><g><text transform="translate(0,0) translate(-17.265625,-9.5)"><tspan x="1" dy="1em" xml:space="preserve">c1.js</tspan></text></g></g></g><g id="flowchart-c2.js-55" class="node default" transform="translate(556.84375,250)" style="opacity:1"><rect width="54.531" height="39" x="-27.266" y="-19.5" class="label-container" rx="0" ry="0"/><g class="label"><g><text transform="translate(0,0) translate(-17.265625,-9.5)"><tspan x="1" dy="1em" xml:space="preserve">c2.js</tspan></text></g></g></g><g id="flowchart-c3.js-57" class="node default" transform="translate(556.84375,339)" style="opacity:1"><rect width="54.531" height="39" x="-27.266" y="-19.5" class="label-container" rx="0" ry="0"/><g class="label"><g><text transform="translate(0,0) translate(-17.265625,-9.5)"><tspan x="1" dy="1em" xml:space="preserve">c3.js</tspan></text></g></g></g><g id="flowchart-d1.js-59" class="node default" transform="translate(662.375,250)" style="opacity:1"><rect width="55.531" height="39" x="-27.766" y="-19.5" class="label-container" rx="0" ry="0"/><g class="label"><g><text transform="translate(0,0) translate(-17.765625,-9.5)"><tspan x="1" dy="1em" xml:space="preserve">d1.js</tspan></text></g></g></g><g id="flowchart-d2.js-61" class="node default" transform="translate(767.90625,205.5)" style="opacity:1"><rect width="55.531" height="39" x="-27.766" y="-19.5" class="label-container" rx="0" ry="0"/><g class="label"><g><text transform="translate(0,0) translate(-17.765625,-9.5)"><tspan x="1" dy="1em" xml:space="preserve">d2.js</tspan></text></g></g></g><g id="flowchart-d3.js-63" class="node default" transform="translate(767.90625,294.5)" style="opacity:1"><rect width="55.531" height="39" x="-27.766" y="-19.5" class="label-container" rx="0" ry="0"/><g class="label"><g><text transform="translate(0,0) translate(-17.765625,-9.5)"><tspan x="1" dy="1em" xml:space="preserve">d3.js</tspan></text></g></g></g><g id="flowchart-main2.html-64" class="node default" transform="translate(211.9375,393.5)" style="opacity:1"><rect width="102.625" height="39" x="-51.313" y="-19.5" class="label-container" rx="0" ry="0"/><g class="label"><g><text transform="translate(0,0) translate(-41.3125,-9.5)"><tspan x="1" dy="1em" xml:space="preserve">main2.html</tspan></text></g></g></g><g id="flowchart-e1.js-65" class="node default" transform="translate(343.3984375,304.5)" style="opacity:1"><rect width="55.344" height="39" x="-27.672" y="-19.5" class="label-container" rx="0" ry="0"/><g class="label"><g><text transform="translate(0,0) translate(-17.671875,-9.5)"><tspan x="1" dy="1em" xml:space="preserve">e1.js</tspan></text></g></g></g><g id="flowchart-e.css-67" class="node default" transform="translate(343.3984375,393.5)" style="opacity:1"><rect width="55.484" height="39" x="-27.742" y="-19.5" class="label-container" rx="0" ry="0"/><g class="label"><g><text transform="translate(0,0) translate(-17.7421875,-9.5)"><tspan x="1" dy="1em" xml:space="preserve">e.css</tspan></text></g></g></g><g id="flowchart-e.png-69" class="node default" transform="translate(343.3984375,482.5)" style="opacity:1"><rect width="60.297" height="39" x="-30.148" y="-19.5" class="label-container" rx="0" ry="0"/><g class="label"><g><text transform="translate(0,0) translate(-20.1484375,-9.5)"><tspan x="1" dy="1em" xml:space="preserve">e.png</tspan></text></g></g></g></g></g></g></svg>