<svg xmlns="http://www.w3.org/2000/svg" xmlns:xlink="http://www.w3.org/1999/xlink" id="mermaid-1638268101009" width="366.875" height="243" viewBox="0 0 366.875 243"><style>#mermaid-1638268101009{fill:#ccc}#mermaid-1638268101009,#mermaid-1638268101009 svg{font-family:&quot;trebuchet ms&quot;,verdana,arial,sans-serif;font-size:16px}#mermaid-1638268101009 .label{font-family:&quot;trebuchet ms&quot;,verdana,arial,sans-serif;color:#ccc}#mermaid-1638268101009 .label text{fill:#ccc;color:#ccc}#mermaid-1638268101009 .node path,#mermaid-1638268101009 .node rect{fill:#1f2020;stroke:#81b1db;stroke-width:1px}#mermaid-1638268101009 .node .label{text-align:center}#mermaid-1638268101009 .arrowheadPath{fill:#d3d3d3}#mermaid-1638268101009 .edgePath .path{stroke:#d3d3d3;stroke-width:1.5px}#mermaid-1638268101009 .edgeLabel{background-color:#585858;text-align:center}#mermaid-1638268101009 .edgeLabel rect{opacity:.5;background-color:#585858;fill:#585858}#mermaid-1638268101009:root{--mermaid-font-family:&quot;trebuchet ms&quot;,verdana,arial,sans-serif}</style><g><g class="output"><g class="edgePaths"><g id="L-A-B" class="edgePath LS-A LE-B" style="opacity:1"><path marker-end="url(#arrowhead26)" d="M38,33.75L42.166666666666664,32.708333333333336C46.333333333333336,31.666666666666668,54.666666666666664,29.583333333333332,63.04296875,28.541666666666668C71.41927083333333,27.5,79.83854166666667,27.5,84.04817708333333,27.5L88.2578125,27.5" class="path" style="fill:none"/><defs><marker id="arrowhead26" markerHeight="6" markerUnits="strokeWidth" markerWidth="8" orient="auto" refX="9" refY="5" viewBox="0 0 10 10"><path d="M 0 0 L 10 5 L 0 10 z" class="arrowheadPath" style="stroke-width:1;stroke-dasharray:1,0"/></marker></defs></g><g id="L-A-C" class="edgePath LS-A LE-C" style="opacity:1"><path marker-end="url(#arrowhead27)" d="M38,54.1875L42.166666666666664,58.822916666666664C46.333333333333336,63.458333333333336,54.666666666666664,72.72916666666667,63,82.02457417043C71.33333333333333,91.31998167419334,79.66666666666667,100.63996334838669,83.83333333333333,105.29995418548334L88,109.95994502258002" class="path" style="fill:none"/><defs><marker id="arrowhead27" markerHeight="6" markerUnits="strokeWidth" markerWidth="8" orient="auto" refX="9" refY="5" viewBox="0 0 10 10"><path d="M 0 0 L 10 5 L 0 10 z" class="arrowheadPath" style="stroke-width:1;stroke-dasharray:1,0"/></marker></defs></g><g id="L-C-D" class="edgePath LS-C LE-D" style="opacity:1"><path marker-end="url(#arrowhead28)" d="M117.578125,109.95994502258002L121.74479166666667,105.29995418548334C125.91145833333333,100.63996334838669,134.24479166666666,91.31998167419334,142.578125,86.65999083709669C150.91145833333334,82,159.24479166666666,82,163.41145833333334,82L167.578125,82" class="path" style="fill:none"/><defs><marker id="arrowhead28" markerHeight="6" markerUnits="strokeWidth" markerWidth="8" orient="auto" refX="9" refY="5" viewBox="0 0 10 10"><path d="M 0 0 L 10 5 L 0 10 z" class="arrowheadPath" style="stroke-width:1;stroke-dasharray:1,0"/></marker></defs></g><g id="L-E-C" class="edgePath LS-E LE-C" style="opacity:1"><path marker-end="url(#arrowhead29)" d="M37.5,136.5L41.75,136.5C46,136.5,54.5,136.5,62.916666666666664,135.45281104784343C71.33333333333333,134.40562209568688,79.66666666666667,132.3112441913738,83.83333333333333,131.2640552392172L88,130.21686628706067" class="path" style="fill:none"/><defs><marker id="arrowhead29" markerHeight="6" markerUnits="strokeWidth" markerWidth="8" orient="auto" refX="9" refY="5" viewBox="0 0 10 10"><path d="M 0 0 L 10 5 L 0 10 z" class="arrowheadPath" style="stroke-width:1;stroke-dasharray:1,0"/></marker></defs></g><g id="L-C-F" class="edgePath LS-C LE-F" style="opacity:1"><path marker-end="url(#arrowhead30)" d="M117.578125,143.04005497742L121.74479166666667,147.70004581451667C125.91145833333333,152.36003665161334,134.24479166666666,161.68001832580669,142.66145833333334,166.34000916290333C151.078125,171,159.578125,171,163.828125,171L168.078125,171" class="path" style="fill:none"/><defs><marker id="arrowhead30" markerHeight="6" markerUnits="strokeWidth" markerWidth="8" orient="auto" refX="9" refY="5" viewBox="0 0 10 10"><path d="M 0 0 L 10 5 L 0 10 z" class="arrowheadPath" style="stroke-width:1;stroke-dasharray:1,0"/></marker></defs></g><g id="L-F-G" class="edgePath LS-F LE-G" style="opacity:1"><path marker-end="url(#arrowhead31)" d="M197.078125,154.86875L201.328125,150.140625C205.578125,145.4125,214.078125,135.95624999999998,222.49479166666666,131.228125C230.91145833333334,126.5,239.24479166666666,126.5,243.41145833333334,126.5L247.578125,126.5" class="path" style="fill:none"/><defs><marker id="arrowhead31" markerHeight="6" markerUnits="strokeWidth" markerWidth="8" orient="auto" refX="9" refY="5" viewBox="0 0 10 10"><path d="M 0 0 L 10 5 L 0 10 z" class="arrowheadPath" style="stroke-width:1;stroke-dasharray:1,0"/></marker></defs></g><g id="L-F-I" class="edgePath LS-F LE-I" style="opacity:1"><path marker-end="url(#arrowhead32)" d="M197.078125,187.13125L201.328125,191.859375C205.578125,196.5875,214.078125,206.04375000000002,223.02604166666666,210.771875C231.97395833333334,215.5,241.36979166666666,215.5,246.06770833333334,215.5L250.765625,215.5" class="path" style="fill:none"/><defs><marker id="arrowhead32" markerHeight="6" markerUnits="strokeWidth" markerWidth="8" orient="auto" refX="9" refY="5" viewBox="0 0 10 10"><path d="M 0 0 L 10 5 L 0 10 z" class="arrowheadPath" style="stroke-width:1;stroke-dasharray:1,0"/></marker></defs></g><g id="L-G-H" class="edgePath LS-G LE-H" style="opacity:1"><path marker-end="url(#arrowhead33)" d="M278.40625,126.5L282.5729166666667,126.5C286.7395833333333,126.5,295.0729166666667,126.5,303.40625,126.5C311.7395833333333,126.5,320.0729166666667,126.5,324.2395833333333,126.5L328.40625,126.5" class="path" style="fill:none"/><defs><marker id="arrowhead33" markerHeight="6" markerUnits="strokeWidth" markerWidth="8" orient="auto" refX="9" refY="5" viewBox="0 0 10 10"><path d="M 0 0 L 10 5 L 0 10 z" class="arrowheadPath" style="stroke-width:1;stroke-dasharray:1,0"/></marker></defs></g></g><g class="edgeLabels"><g class="edgeLabel" style="opacity:1"><g class="label" transform="translate(0,0)"><rect width="0" height="0" rx="0" ry="0"/></g></g><g class="edgeLabel" style="opacity:1"><g class="label" transform="translate(0,0)"><rect width="0" height="0" rx="0" ry="0"/></g></g><g class="edgeLabel" style="opacity:1"><g class="label" transform="translate(0,0)"><rect width="0" height="0" rx="0" ry="0"/></g></g><g class="edgeLabel" style="opacity:1"><g class="label" transform="translate(0,0)"><rect width="0" height="0" rx="0" ry="0"/></g></g><g class="edgeLabel" style="opacity:1"><g class="label" transform="translate(0,0)"><rect width="0" height="0" rx="0" ry="0"/></g></g><g class="edgeLabel" style="opacity:1"><g class="label" transform="translate(0,0)"><rect width="0" height="0" rx="0" ry="0"/></g></g><g class="edgeLabel" style="opacity:1"><g class="label" transform="translate(0,0)"><rect width="0" height="0" rx="0" ry="0"/></g></g><g class="edgeLabel" style="opacity:1"><g class="label" transform="translate(0,0)"><rect width="0" height="0" rx="0" ry="0"/></g></g></g><g class="nodes"><g id="flowchart-A-16" class="node default" transform="translate(23,37.5)" style="opacity:1"><rect width="30" height="39" x="-15" y="-19.5" class="label-container" rx="0" ry="0"/><g class="label"><g><text transform="translate(0,0) translate(-5,-9.5)"><tspan x="1" dy="1em" xml:space="preserve">A</tspan></text></g></g></g><g id="flowchart-B-17" class="node default" transform="translate(102.7890625,27.5)" style="opacity:1"><rect width="29.063" height="39" x="-14.531" y="-19.5" class="label-container" rx="0" ry="0"/><g class="label"><g><text transform="translate(0,0) translate(-4.53125,-9.5)"><tspan x="1" dy="1em" xml:space="preserve">B</tspan></text></g></g></g><g id="flowchart-C-19" class="node default" transform="translate(102.7890625,126.5)" style="opacity:1"><rect width="29.578" height="39" x="-14.789" y="-19.5" class="label-container" rx="0" ry="0"/><g class="label"><g><text transform="translate(0,0) translate(-4.7890625,-9.5)"><tspan x="1" dy="1em" xml:space="preserve">C</tspan></text></g></g></g><g id="flowchart-D-21" class="node default" transform="translate(182.578125,82)" style="opacity:1"><rect width="30" height="39" x="-15" y="-19.5" class="label-container" rx="0" ry="0"/><g class="label"><g><text transform="translate(0,0) translate(-5,-9.5)"><tspan x="1" dy="1em" xml:space="preserve">D</tspan></text></g></g></g><g id="flowchart-E-22" class="node default" transform="translate(23,136.5)" style="opacity:1"><rect width="29" height="39" x="-14.5" y="-19.5" class="label-container" rx="0" ry="0"/><g class="label"><g><text transform="translate(0,0) translate(-4.5,-9.5)"><tspan x="1" dy="1em" xml:space="preserve">E</tspan></text></g></g></g><g id="flowchart-F-25" class="node default" transform="translate(182.578125,171)" style="opacity:1"><rect width="29" height="39" x="-14.5" y="-19.5" class="label-container" rx="0" ry="0"/><g class="label"><g><text transform="translate(0,0) translate(-4.5,-9.5)"><tspan x="1" dy="1em" xml:space="preserve">F</tspan></text></g></g></g><g id="flowchart-G-27" class="node default" transform="translate(262.9921875,126.5)" style="opacity:1"><rect width="30.828" height="39" x="-15.414" y="-19.5" class="label-container" rx="0" ry="0"/><g class="label"><g><text transform="translate(0,0) translate(-5.4140625,-9.5)"><tspan x="1" dy="1em" xml:space="preserve">G</tspan></text></g></g></g><g id="flowchart-I-29" class="node default" transform="translate(262.9921875,215.5)" style="opacity:1"><rect width="24.453" height="39" x="-12.227" y="-19.5" class="label-container" rx="0" ry="0"/><g class="label"><g><text transform="translate(0,0) translate(-2.2265625,-9.5)"><tspan x="1" dy="1em" xml:space="preserve">I</tspan></text></g></g></g><g id="flowchart-H-31" class="node default" transform="translate(343.640625,126.5)" style="opacity:1"><rect width="30.469" height="39" x="-15.234" y="-19.5" class="label-container" rx="0" ry="0"/><g class="label"><g><text transform="translate(0,0) translate(-5.234375,-9.5)"><tspan x="1" dy="1em" xml:space="preserve">H</tspan></text></g></g></g></g></g></g></svg>